<svg xmlns="http://www.w3.org/2000/svg"
    width="500"
    zoomAndPan="magnify"
    viewBox="0 0 375 374.999991"
    height="500"
    preserveAspectRatio="xMidYMid meet"
    version="1.0"><defs><g/><clipPath id="c7362eb543"><path d="M 43.5 46.171875 L 344 46.171875 L 344 341 L 43.5 341 Z M 43.5 46.171875 " /></clipPath><clipPath id="b2c8f70477"><path d="M 60.75 46.171875 L 326.25 46.171875 C 330.824219 46.171875 335.210938 47.988281 338.449219 51.222656 C 341.683594 54.457031 343.5 58.84375 343.5 63.421875 L 343.5 323.578125 C 343.5 328.15625 341.683594 332.542969 338.449219 335.777344 C 335.210938 339.011719 330.824219 340.828125 326.25 340.828125 L 60.75 340.828125 C 56.175781 340.828125 51.789062 339.011719 48.550781 335.777344 C 45.316406 332.542969 43.5 328.15625 43.5 323.578125 L 43.5 63.421875 C 43.5 58.84375 45.316406 54.457031 48.550781 51.222656 C 51.789062 47.988281 56.175781 46.171875 60.75 46.171875 " /></clipPath><clipPath id="298222a313"><path d="M 43.5 46.171875 L 343.5 46.171875 L 343.5 340.921875 L 43.5 340.921875 Z M 43.5 46.171875 " /></clipPath><clipPath id="bc348f4e03"><path d="M 60.75 46.171875 L 326.25 46.171875 C 330.824219 46.171875 335.210938 47.988281 338.445312 51.222656 C 341.679688 54.460938 343.5 58.847656 343.5 63.425781 L 343.5 323.664062 C 343.5 328.242188 341.679688 332.628906 338.445312 335.867188 C 335.210938 339.101562 330.824219 340.921875 326.25 340.921875 L 60.75 340.921875 C 56.175781 340.921875 51.789062 339.101562 48.554688 335.867188 C 45.320312 332.628906 43.5 328.242188 43.5 323.664062 L 43.5 63.425781 C 43.5 58.847656 45.320312 54.460938 48.554688 51.222656 C 51.789062 47.988281 56.175781 46.171875 60.75 46.171875 " /></clipPath><clipPath id="f83c3c8bfe"><path d="M 31.5 34.171875 L 332 34.171875 L 332 329 L 31.5 329 Z M 31.5 34.171875 " /></clipPath><clipPath id="4c7f453daa"><path d="M 48.75 34.171875 L 314.25 34.171875 C 318.824219 34.171875 323.210938 35.988281 326.449219 39.222656 C 329.683594 42.457031 331.5 46.84375 331.5 51.421875 L 331.5 311.578125 C 331.5 316.15625 329.683594 320.542969 326.449219 323.777344 C 323.210938 327.011719 318.824219 328.828125 314.25 328.828125 L 48.75 328.828125 C 44.175781 328.828125 39.789062 327.011719 36.550781 323.777344 C 33.316406 320.542969 31.5 316.15625 31.5 311.578125 L 31.5 51.421875 C 31.5 46.84375 33.316406 42.457031 36.550781 39.222656 C 39.789062 35.988281 44.175781 34.171875 48.75 34.171875 " /></clipPath><clipPath id="3f295bed54"><path d="M 31.5 34.171875 L 331.5 34.171875 L 331.5 328.921875 L 31.5 328.921875 Z M 31.5 34.171875 " /></clipPath><clipPath id="f214bcc693"><path d="M 48.75 34.171875 L 314.25 34.171875 C 318.824219 34.171875 323.210938 35.988281 326.445312 39.222656 C 329.679688 42.460938 331.5 46.847656 331.5 51.425781 L 331.5 311.664062 C 331.5 316.242188 329.679688 320.628906 326.445312 323.867188 C 323.210938 327.101562 318.824219 328.921875 314.25 328.921875 L 48.75 328.921875 C 44.175781 328.921875 39.789062 327.101562 36.554688 323.867188 C 33.320312 320.628906 31.5 316.242188 31.5 311.664062 L 31.5 51.425781 C 31.5 46.847656 33.320312 42.460938 36.554688 39.222656 C 39.789062 35.988281 44.175781 34.171875 48.75 34.171875 " /></clipPath></defs><g clip-path="url(#c7362eb543)"><g clip-path="url(#b2c8f70477)"><path fill="#4880ff" d="M 43.5 46.171875 L 344.085938 46.171875 L 344.085938 341.484375 L 43.5 341.484375 Z M 43.5 46.171875 " fill-opacity="1" /></g></g><g clip-path="url(#298222a313)"><g clip-path="url(#bc348f4e03)"><path
    transform="matrix(0.75, 0, 0, 0.750239, 43.501674, 46.170232)" fill="none"
    d="M 22.997769 0.00218975 L 376.997792 0.00218975 C 383.096751 0.00218975 388.94571 2.423294 393.25821 6.734423 C 397.57071 11.050758 399.997794 16.897856 399.997794 23.000081 L 399.997794 369.874101 C 399.997794 375.976326 397.57071 381.823425 393.25821 386.13976 C 388.94571 390.450888 383.096751 392.8772 376.997792 392.8772 L 22.997769 392.8772 C 16.89881 392.8772 11.049851 390.450888 6.737351 386.13976 C 2.424851 381.823425 -0.00223259 375.976326 -0.00223259 369.874101 L -0.00223259 23.000081 C -0.00223259 16.897856 2.424851 11.050758 6.737351 6.734423 C 11.049851 2.423294 16.89881 0.00218975 22.997769 0.00218975 " stroke="#202124" stroke-width="8" stroke-opacity="1" stroke-miterlimit="4"/></g></g><g clip-path="url(#f83c3c8bfe)"><g clip-path="url(#4c7f453daa)"><path fill="#ffffff" d="M 31.5 34.171875 L 332.085938 34.171875 L 332.085938 329.484375 L 31.5 329.484375 Z M 31.5 34.171875 " fill-opacity="1" /></g></g><g clip-path="url(#3f295bed54)"><g clip-path="url(#f214bcc693)"><path
    transform="matrix(0.75, 0, 0, 0.750239, 31.501676, 34.170232)" fill="none"
    d="M 22.997767 0.00218966 L 376.99779 0.00218966 C 383.096749 0.00218966 388.945708 2.423294 393.258208 6.734423 C 397.570708 11.050758 399.997792 16.897856 399.997792 23.000081 L 399.997792 369.874101 C 399.997792 375.976326 397.570708 381.823424 393.258208 386.13976 C 388.945708 390.450888 383.096749 392.877199 376.99779 392.877199 L 22.997767 392.877199 C 16.898808 392.877199 11.049849 390.450888 6.737349 386.13976 C 2.424849 381.823424 -0.0022346 375.976326 -0.0022346 369.874101 L -0.0022346 23.000081 C -0.0022346 16.897856 2.424849 11.050758 6.737349 6.734423 C 11.049849 2.423294 16.898808 0.00218966 22.997767 0.00218966 " stroke="#202124" stroke-width="8" stroke-opacity="1" stroke-miterlimit="4"/></g></g><g fill="#4880ff" fill-opacity="1"><g transform="translate(78.136031, 236.531467)"><g><path d="M 24.359375 -99.546875 C 18.910156 -99.546875 14.707031 -100.820312 11.75 -103.375 C 8.789062 -105.925781 7.3125 -109.640625 7.3125 -114.515625 C 7.3125 -119.265625 8.789062 -122.914062 11.75 -125.46875 C 14.707031 -128.03125 18.910156 -129.3125 24.359375 -129.3125 C 35.847656 -129.3125 41.59375 -124.378906 41.59375 -114.515625 C 41.59375 -109.640625 40.113281 -105.925781 37.15625 -103.375 C 34.195312 -100.820312 29.929688 -99.546875 24.359375 -99.546875 Z M 24.359375 1.5625 C 19.367188 1.5625 15.566406 0.113281 12.953125 -2.78125 C 10.347656 -5.6875 9.046875 -9.863281 9.046875 -15.3125 L 9.046875 -70.3125 C 9.046875 -75.757812 10.347656 -79.929688 12.953125 -82.828125 C 15.566406 -85.734375 19.367188 -87.1875 24.359375 -87.1875 C 29.347656 -87.1875 33.207031 -85.734375 35.9375 -82.828125 C 38.664062 -79.929688 40.03125 -75.757812 40.03125 -70.3125 L 40.03125 -15.3125 C 40.03125 -9.863281 38.691406 -5.6875 36.015625 -2.78125 C 33.347656 0.113281 29.460938 1.5625 24.359375 1.5625 Z M 24.359375 1.5625 "/></g></g></g><g fill="#4880ff" fill-opacity="1"><g transform="translate(127.033677, 236.531467)"><g><path d="M 51.515625 33.234375 C 38.398438 33.234375 27.609375 31.550781 19.140625 28.1875 C 14.960938 26.6875 12.265625 24.484375 11.046875 21.578125 C 9.828125 18.679688 9.679688 15.753906 10.609375 12.796875 C 11.546875 9.835938 13.203125 7.570312 15.578125 6 C 17.953125 4.4375 20.765625 4.234375 24.015625 5.390625 C 29.117188 7.484375 33.726562 8.847656 37.84375 9.484375 C 41.96875 10.117188 45.539062 10.4375 48.5625 10.4375 C 55.632812 10.4375 60.9375 8.957031 64.46875 6 C 68.007812 3.039062 69.78125 -1.566406 69.78125 -7.828125 L 69.78125 -15.84375 C 67.34375 -11.664062 63.6875 -8.359375 58.8125 -5.921875 C 53.945312 -3.484375 48.726562 -2.265625 43.15625 -2.265625 C 35.5 -2.265625 28.828125 -4.03125 23.140625 -7.5625 C 17.460938 -11.101562 13.023438 -16.0625 9.828125 -22.4375 C 6.640625 -28.820312 5.046875 -36.3125 5.046875 -44.90625 C 5.046875 -53.488281 6.640625 -60.96875 9.828125 -67.34375 C 13.023438 -73.726562 17.460938 -78.6875 23.140625 -82.21875 C 28.828125 -85.757812 35.5 -87.53125 43.15625 -87.53125 C 48.84375 -87.53125 54.09375 -86.34375 58.90625 -83.96875 C 63.71875 -81.59375 67.226562 -78.375 69.4375 -74.3125 C 70.476562 -82.894531 75.582031 -87.1875 84.75 -87.1875 C 94.84375 -87.1875 99.890625 -82.023438 99.890625 -71.703125 L 99.890625 -11.484375 C 99.890625 3.484375 95.710938 14.675781 87.359375 22.09375 C 79.003906 29.519531 67.054688 33.234375 51.515625 33.234375 Z M 52.734375 -25.0625 C 57.835938 -25.0625 61.894531 -26.800781 64.90625 -30.28125 C 67.925781 -33.757812 69.4375 -38.632812 69.4375 -44.90625 C 69.4375 -51.164062 67.925781 -56.035156 64.90625 -59.515625 C 61.894531 -62.992188 57.835938 -64.734375 52.734375 -64.734375 C 47.742188 -64.734375 43.738281 -62.992188 40.71875 -59.515625 C 37.707031 -56.035156 36.203125 -51.164062 36.203125 -44.90625 C 36.203125 -38.632812 37.707031 -33.757812 40.71875 -30.28125 C 43.738281 -26.800781 47.742188 -25.0625 52.734375 -25.0625 Z M 52.734375 -25.0625 "/></g></g></g><g fill="#4880ff" fill-opacity="1"><g transform="translate(235.965758, 236.531467)"><g><path d="M 24.359375 -99.546875 C 18.910156 -99.546875 14.707031 -100.820312 11.75 -103.375 C 8.789062 -105.925781 7.3125 -109.640625 7.3125 -114.515625 C 7.3125 -119.265625 8.789062 -122.914062 11.75 -125.46875 C 14.707031 -128.03125 18.910156 -129.3125 24.359375 -129.3125 C 35.847656 -129.3125 41.59375 -124.378906 41.59375 -114.515625 C 41.59375 -109.640625 40.113281 -105.925781 37.15625 -103.375 C 34.195312 -100.820312 29.929688 -99.546875 24.359375 -99.546875 Z M 24.359375 1.5625 C 19.367188 1.5625 15.566406 0.113281 12.953125 -2.78125 C 10.347656 -5.6875 9.046875 -9.863281 9.046875 -15.3125 L 9.046875 -70.3125 C 9.046875 -75.757812 10.347656 -79.929688 12.953125 -82.828125 C 15.566406 -85.734375 19.367188 -87.1875 24.359375 -87.1875 C 29.347656 -87.1875 33.207031 -85.734375 35.9375 -82.828125 C 38.664062 -79.929688 40.03125 -75.757812 40.03125 -70.3125 L 40.03125 -15.3125 C 40.03125 -9.863281 38.691406 -5.6875 36.015625 -2.78125 C 33.347656 0.113281 29.460938 1.5625 24.359375 1.5625 Z M 24.359375 1.5625 "/></g></g></g></svg>